<?xml version="1.0" encoding="UTF-8"?>
<!DOCTYPE svg PUBLIC "-//W3C//DTD SVG 1.1//EN" "http://www.w3.org/Graphics/SVG/1.1/DTD/svg11.dtd">
<svg xmlns="http://www.w3.org/2000/svg" version="1.1" width="512px" height="512px" style="shape-rendering:geometricPrecision; text-rendering:geometricPrecision; image-rendering:optimizeQuality; fill-rule:evenodd; clip-rule:evenodd" xmlns:xlink="http://www.w3.org/1999/xlink">
<g><path style="opacity:0.997" fill="#3b4653" d="M 160.5,5.5 C 171.986,4.81774 177.152,10.1511 176,21.5C 161.691,58.0963 147.191,94.5963 132.5,131C 208.167,131.667 283.833,131.667 359.5,131C 344.871,94.9048 330.371,58.7381 316,22.5C 314.955,7.60144 321.455,2.76811 335.5,8C 337.617,9.73092 339.117,11.8976 340,14.5C 355.333,53.1667 370.667,91.8333 386,130.5C 402.759,131.326 419.593,131.826 436.5,132C 461.197,137.368 474.53,152.702 476.5,178C 473.292,207.376 456.959,222.876 427.5,224.5C 424.635,248.558 421.301,272.558 417.5,296.5C 417.833,297.167 418.167,297.833 418.5,298.5C 464.611,316.3 489.277,349.966 492.5,399.5C 489.487,449.733 464.487,483.566 417.5,501C 374.639,512.151 337.805,501.984 307,470.5C 292.409,453.909 283.909,434.576 281.5,412.5C 225.499,412.667 169.499,412.5 113.5,412C 99.7492,408.582 90.9158,400.082 87,386.5C 79.1182,332.161 71.2849,277.827 63.5,223.5C 35.9845,220.817 20.9845,205.651 18.5,178C 20.4697,152.702 33.8031,137.368 58.5,132C 74.1773,131.833 89.844,131.333 105.5,130.5C 121.39,90.3868 137.557,50.3868 154,10.5C 155.805,8.17434 157.972,6.50767 160.5,5.5 Z M 60.5,156.5 C 185.167,156.333 309.834,156.5 434.5,157C 451.168,164.336 455.001,175.836 446,191.5C 442.068,195.716 437.234,198.216 431.5,199C 308.833,199.667 186.167,199.667 63.5,199C 51.4968,196.829 44.8302,189.663 43.5,177.5C 45.1604,167.18 50.827,160.18 60.5,156.5 Z M 89.5,224.5 C 193.833,224.5 298.167,224.5 402.5,224.5C 399.581,247.431 396.248,270.264 392.5,293C 376.618,292.943 361.284,295.777 346.5,301.5C 346.167,300.5 345.833,299.5 345.5,298.5C 346.525,287.67 347.525,276.837 348.5,266C 346.848,254.671 340.515,250.671 329.5,254C 328,255.5 326.5,257 325,258.5C 322.239,278.041 320.239,297.707 319,317.5C 297.34,335.815 284.84,359.148 281.5,387.5C 226.083,387.992 170.75,387.492 115.5,386C 112.819,383.806 111.319,380.973 111,377.5C 103.598,326.523 96.4318,275.523 89.5,224.5 Z M 380.5,318.5 C 423.971,319.156 452.138,340.156 465,381.5C 471.539,424.924 455.039,456.091 415.5,475C 374.398,487.744 341.564,476.578 317,441.5C 299.166,407.457 302.166,375.457 326,345.5C 340.866,329.718 359.033,320.718 380.5,318.5 Z"/></g>
<g><path style="opacity:0.999" fill="#3d4855" d="M 153.5,252.5 C 164.871,253.043 170.038,259.043 169,270.5C 171.485,297.469 173.152,324.469 174,351.5C 168.628,359.849 161.795,361.349 153.5,356C 151.438,353.932 150.272,351.432 150,348.5C 147.884,321.329 145.718,294.162 143.5,267C 143.151,259.531 146.485,254.697 153.5,252.5 Z"/></g>
<g><path style="opacity:0.979" fill="#3c4453" d="M 242.5,252.5 C 249.883,251.772 255.049,254.772 258,261.5C 258.667,291.167 258.667,320.833 258,350.5C 253.657,359.059 247.157,361.225 238.5,357C 236.19,355.363 234.69,353.196 234,350.5C 233.333,320.833 233.333,291.167 234,261.5C 235.662,257.34 238.495,254.34 242.5,252.5 Z"/></g>
<g><path style="opacity:1" fill="#3c4755" d="M 373.5,445.5 C 374.495,434.346 374.828,423.012 374.5,411.5C 363.321,411.172 352.321,411.505 341.5,412.5C 331.249,410.003 327.749,403.67 331,393.5C 332.5,392 334,390.5 335.5,389C 348.067,387.539 360.734,387.039 373.5,387.5C 373.333,375.829 373.5,364.162 374,352.5C 378.42,343.176 385.254,341.01 394.5,346C 396.041,347.579 397.208,349.413 398,351.5C 398.5,363.495 398.667,375.495 398.5,387.5C 410.505,387.333 422.505,387.5 434.5,388C 442.377,392.023 444.543,398.19 441,406.5C 439.457,408.378 437.624,409.878 435.5,411C 423.228,412.418 410.895,412.918 398.5,412.5C 398.941,425.241 398.441,437.908 397,450.5C 391.685,456.372 385.518,457.539 378.5,454C 375.926,451.682 374.259,448.849 373.5,445.5 Z"/></g>
<g><path style="opacity:0.306" fill="#96aec3" d="M 341.5,412.5 C 352.321,411.505 363.321,411.172 374.5,411.5C 374.828,423.012 374.495,434.346 373.5,445.5C 373.5,434.5 373.5,423.5 373.5,412.5C 362.833,412.5 352.167,412.5 341.5,412.5 Z"/></g>
</svg>
