<?xml version="1.0" standalone="no"?>
<!DOCTYPE svg PUBLIC "-//W3C//DTD SVG 20010904//EN"
 "http://www.w3.org/TR/2001/REC-SVG-20010904/DTD/svg10.dtd">
<svg version="1.0" xmlns="http://www.w3.org/2000/svg"
 width="512.000000pt" height="512.000000pt" viewBox="0 0 512.000000 512.000000"
 preserveAspectRatio="xMidYMid meet">

<g transform="translate(0.000000,512.000000) scale(0.100000,-0.100000)"
fill="#33414f" stroke="none">
<path d="M2860 4820 l0 -300 155 0 155 0 0 300 0 300 -155 0 -155 0 0 -300z"/>
<path d="M1850 4635 l-105 -105 210 -210 210 -210 105 105 105 105 -210 210
-210 210 -105 -105z"/>
<path d="M3862 4527 l-212 -212 105 -105 105 -105 213 213 212 212 -105 105
-105 105 -213 -213z"/>
<path d="M341 4184 c-105 -28 -209 -104 -267 -196 -32 -50 -64 -149 -64 -198
l0 -40 150 0 150 0 0 24 c0 34 40 88 80 109 31 15 59 17 232 15 220 -3 235 -8
270 -79 13 -27 588 -2324 588 -2351 0 -3 -19 -17 -43 -31 -136 -80 -217 -224
-217 -387 0 -131 41 -230 134 -321 95 -94 197 -129 374 -129 105 0 114 -1 107
-17 -5 -10 -10 -61 -13 -113 -6 -144 32 -243 132 -341 172 -170 450 -170 622
0 100 98 138 197 132 341 -3 52 -8 103 -13 113 -7 16 19 17 470 17 451 0 477
-1 470 -17 -5 -10 -10 -61 -13 -113 -6 -144 32 -243 132 -341 172 -170 450
-170 622 0 93 91 134 190 134 321 0 210 -133 382 -335 435 -52 13 -217 15
-1300 15 -1161 0 -1242 1 -1275 18 -107 53 -107 211 0 264 33 17 122 18 1432
18 1321 0 1397 1 1402 18 17 57 666 2332 671 2354 l7 28 -1923 2 -1923 3 -41
155 c-48 181 -68 224 -141 300 -62 65 -125 103 -209 125 -81 21 -455 20 -534
-1z m1989 -3602 c50 -25 80 -75 80 -132 0 -57 -30 -107 -80 -132 -98 -50 -210
21 -210 132 0 81 67 150 145 150 17 0 46 -8 65 -18z m1800 0 c50 -25 80 -75
80 -132 0 -57 -30 -107 -80 -132 -98 -50 -210 21 -210 132 0 81 67 150 145
150 17 0 46 -8 65 -18z"/>
</g>
</svg>
