<?xml version="1.0" encoding="UTF-8" standalone="no"?>
<!DOCTYPE svg PUBLIC "-//W3C//DTD SVG 1.1//EN" "http://www.w3.org/Graphics/SVG/1.1/DTD/svg11.dtd">
<svg xmlns="http://www.w3.org/2000/svg" version="1.1" viewBox="0.00 0.00 364.00 506.00">
<path fill="#32404e" d="
  M 272.03 130.68
  Q 272.19 131.02 272.47 131.27
  Q 272.96 131.70 272.95 132.36
  L 271.89 220.08
  Q 271.88 220.65 271.53 221.08
  Q 271.10 221.60 270.88 222.25
  A 0.48 0.45 -12.3 0 1 270.75 222.44
  L 264.51 228.47
  A 1.60 1.59 -29.4 0 1 261.86 227.73
  C 259.96 220.48 260.22 212.24 260.15 204.76
  Q 260.15 204.72 260.11 204.71
  Q 259.99 204.67 259.87 204.63
  A 0.10 0.08 -55.8 0 1 259.86 204.49
  Q 260.45 203.78 260.13 202.82
  Q 260.00 202.45 260.15 202.08
  Q 260.37 201.53 260.07 201.01
  Q 259.78 200.53 259.77 199.97
  L 259.02 120.25
  Q 259.02 119.69 259.32 119.24
  Q 259.71 118.66 259.85 118.00
  C 261.68 109.34 263.77 100.58 267.03 92.33
  Q 268.47 88.69 271.47 82.88
  Q 283.25 60.07 295.57 37.55
  C 296.18 36.43 297.15 35.79 297.71 34.72
  Q 299.57 31.13 301.57 27.62
  C 302.31 26.32 303.91 25.47 304.23 23.54
  A 1.32 1.30 75.0 0 1 304.68 22.75
  Q 306.12 21.53 306.92 19.89
  C 307.63 18.41 308.76 17.30 309.31 15.75
  Q 309.47 15.29 309.87 14.98
  C 311.45 13.76 312.34 11.90 313.56 10.60
  Q 314.50 9.59 315.32 8.48
  Q 315.60 8.10 316.07 8.09
  Q 320.75 8.00 323.00 11.74
  Q 324.52 14.28 325.53 15.47
  Q 325.85 15.85 325.89 16.34
  Q 326.10 18.41 327.17 20.15
  C 328.32 22.02 327.57 22.99 328.26 24.63
  C 329.43 27.38 330.46 29.74 330.88 32.85
  C 331.40 36.69 332.19 41.78 334.14 45.19
  Q 334.50 45.83 334.61 46.38
  C 341.66 80.83 345.01 116.08 345.91 151.21
  C 345.92 151.78 345.64 152.24 345.96 152.97
  Q 346.15 153.40 346.16 153.87
  Q 346.50 179.81 346.68 205.75
  C 346.89 235.54 346.02 265.29 345.93 295.07
  Q 345.93 295.60 345.59 296.00
  Q 345.23 296.43 345.00 296.94
  Q 344.80 297.38 344.46 297.71
  L 338.94 303.06
  Q 336.64 305.30 335.72 302.22
  C 333.90 296.11 334.29 288.13 334.11 281.75
  C 333.03 242.49 333.33 203.35 333.78 164.09
  Q 333.78 163.53 333.44 163.10
  Q 332.81 162.31 333.08 161.22
  A 1.17 1.17 0.0 0 0 332.90 160.28
  Q 332.07 159.09 330.68 158.84
  A 0.93 0.93 0.0 0 1 330.07 158.44
  Q 329.70 157.87 328.96 157.90
  Q 328.41 157.93 328.07 157.49
  L 327.85 157.20
  A 0.78 0.78 0.0 0 0 327.02 156.92
  Q 326.28 157.12 326.03 156.42
  A 0.75 0.74 -16.0 0 0 325.17 155.95
  Q 324.26 156.14 323.94 155.31
  A 0.61 0.60 73.0 0 0 323.25 154.94
  Q 322.42 155.12 321.90 154.47
  Q 321.59 154.07 321.09 153.98
  Q 320.42 153.85 320.43 154.50
  C 321.23 194.10 320.08 232.62 319.96 269.22
  C 319.96 270.72 319.07 272.45 317.84 273.29
  C 316.54 274.19 315.97 275.46 314.85 276.35
  Q 313.55 277.37 312.35 278.49
  A 1.51 1.51 0.0 0 1 309.87 277.80
  Q 309.12 275.16 308.94 272.74
  Q 308.17 261.91 308.07 251.05
  Q 308.07 251.00 308.04 250.96
  Q 307.96 250.85 307.89 250.76
  Q 307.83 250.68 307.83 250.58
  C 307.53 216.90 306.94 189.60 307.67 149.62
  C 307.68 149.03 307.96 148.40 308.01 147.72
  A 0.67 0.66 -1.1 0 0 307.27 147.01
  Q 306.45 147.12 306.01 146.42
  Q 305.67 145.87 305.03 145.91
  Q 304.87 145.92 304.71 145.93
  Q 304.29 145.97 304.11 145.58
  Q 303.74 144.78 302.81 144.92
  Q 302.31 145.00 302.10 144.55
  Q 301.73 143.77 300.82 143.93
  Q 300.33 144.02 300.10 143.56
  Q 299.73 142.79 298.82 142.94
  Q 298.33 143.01 298.10 142.57
  Q 297.71 141.79 296.78 141.94
  Q 296.25 142.02 296.04 141.53
  Q 295.77 140.90 295.09 140.96
  Q 294.48 141.02 294.49 141.63
  C 295.17 179.15 294.04 216.57 293.93 254.07
  Q 293.93 254.62 293.57 255.03
  Q 293.13 255.53 292.92 256.17
  A 0.74 0.63 -17.3 0 1 292.75 256.44
  L 286.50 262.47
  A 1.59 1.59 0.0 0 1 283.86 261.73
  C 282.00 254.70 282.31 246.87 282.11 239.62
  Q 282.11 239.51 282.21 237.39
  C 282.27 236.10 281.87 234.81 281.86 233.70
  C 281.41 200.77 280.95 173.49 281.71 135.03
  Q 281.72 134.51 281.29 134.22
  Q 280.02 133.39 278.67 132.78
  Q 278.29 132.60 277.99 132.31
  Q 277.52 131.85 276.83 131.95
  Q 276.33 132.02 276.10 131.57
  Q 275.72 130.83 274.86 130.93
  Q 274.39 130.97 274.13 130.58
  Q 273.52 129.63 272.31 130.04
  Q 271.81 130.20 272.03 130.68
  Z"
/>
<path fill="#32404e" d="
  M 304.19 10.97
  C 305.72 10.28 307.45 9.15 309.09 8.55
  Q 310.88 7.90 309.53 9.23
  Q 307.31 11.41 304.65 14.64
  Q 292.77 29.03 282.87 44.88
  C 260.44 80.76 240.77 118.48 222.27 156.51
  Q 212.93 175.71 205.16 195.56
  A 0.43 0.42 25.8 0 1 204.55 195.77
  L 135.32 156.47
  Q 135.03 156.31 135.22 156.04
  Q 161.47 119.22 189.02 83.50
  C 198.75 70.88 205.14 62.77 214.38 54.38
  Q 219.89 49.38 227.39 45.91
  Q 265.69 28.23 304.19 10.97
  Z"
/>
<path fill="#32404e" d="
  M 40.88 144.25
  Q 66.12 144.03 91.36 144.48
  C 96.76 144.57 102.21 146.53 108.30 149.08
  C 116.58 152.55 124.96 157.09 132.83 161.57
  Q 165.78 180.33 198.67 199.19
  Q 208.86 205.03 215.79 209.51
  Q 231.79 219.84 241.41 227.85
  C 250.03 235.03 260.33 245.47 261.42 257.01
  C 262.21 265.33 255.31 276.54 250.16 282.67
  C 243.03 291.15 235.45 297.56 226.03 305.15
  Q 218.64 311.10 211.93 315.40
  Q 159.03 349.28 97.81 362.15
  Q 96.79 362.37 97.65 361.78
  Q 103.77 357.64 109.81 353.06
  C 128.62 338.79 145.00 319.29 157.70 299.45
  C 163.71 290.05 165.61 278.41 161.46 267.75
  Q 160.26 264.66 153.30 255.46
  C 145.30 244.88 137.38 235.67 127.50 225.53
  Q 115.95 213.68 104.33 201.91
  Q 98.82 196.33 80.23 180.62
  Q 65.33 168.04 64.94 167.73
  Q 49.31 155.34 30.88 147.32
  C 29.14 146.57 27.41 146.41 25.59 146.33
  Q 24.28 146.27 25.29 145.43
  Q 26.23 144.65 28.75 144.55
  Q 34.82 144.31 40.88 144.25
  Z"
/>
<path fill="#32404e" d="
  M 19.02 180.04
  C 18.92 179.11 18.36 178.64 18.00 177.76
  Q 17.79 177.25 17.26 177.09
  Q 15.97 176.72 15.34 175.45
  Q 15.14 175.04 15.16 174.59
  C 15.72 165.31 16.74 158.36 19.79 150.48
  Q 20.28 149.24 21.61 149.32
  Q 28.16 149.72 34.54 153.13
  C 48.93 160.82 62.02 171.90 73.89 183.16
  Q 74.52 183.76 74.53 184.63
  Q 74.68 195.50 74.80 206.75
  Q 74.87 213.16 71.16 217.41
  Q 47.20 244.91 22.53 271.77
  Q 21.26 273.15 19.53 274.46
  A 1.30 1.30 0.0 0 1 17.57 273.99
  C 16.14 271.01 16.25 266.51 16.12 263.21
  Q 16.10 262.67 16.46 262.27
  L 18.59 259.88
  A 1.66 1.62 -24.6 0 0 19.01 258.79
  L 19.04 255.97
  Q 19.05 255.33 18.58 254.88
  L 16.02 252.40
  A 0.53 0.52 52.8 0 1 16.13 251.56
  L 17.25 250.94
  A 1.26 1.25 3.3 0 0 17.68 250.56
  Q 20.36 247.05 17.86 243.61
  Q 17.57 243.22 17.12 243.01
  Q 15.75 242.37 16.08 241.13
  Q 16.23 240.56 17.14 239.60
  Q 21.69 234.77 16.12 230.54
  A 0.58 0.57 -48.3 0 1 16.07 229.66
  Q 16.39 229.37 16.81 229.21
  A 1.82 1.78 -80.9 0 0 17.62 228.61
  Q 21.02 224.04 16.61 220.64
  A 1.66 1.66 0.0 0 1 16.59 218.03
  Q 19.43 215.77 19.08 212.53
  C 18.88 210.67 17.34 209.59 16.06 208.37
  A 0.54 0.53 56.8 0 1 16.24 207.48
  C 20.29 205.98 19.48 200.62 16.65 198.73
  A 1.56 1.56 0.0 0 1 16.35 196.41
  L 18.62 193.82
  Q 19.03 193.35 19.03 192.73
  L 19.02 189.84
  Q 19.02 189.33 18.66 188.97
  L 16.17 186.54
  A 0.66 0.66 0.0 0 1 16.30 185.50
  Q 19.44 183.73 19.02 180.04
  Z"
/>
<path fill="#32404e" d="
  M 68.45 288.68
  C 68.72 287.76 68.93 286.55 69.33 285.25
  Q 74.47 268.83 78.82 258.04
  Q 88.96 232.89 102.21 209.48
  A 0.55 0.54 -52.5 0 1 103.07 209.36
  C 119.16 225.65 135.11 241.37 148.84 259.67
  Q 153.75 266.21 155.62 269.96
  C 159.03 276.80 157.38 285.72 154.39 292.42
  Q 152.91 295.75 147.04 304.30
  C 134.93 321.92 120.54 339.29 103.94 352.69
  Q 96.04 359.07 86.20 363.62
  C 83.53 364.86 81.56 364.46 78.78 364.23
  Q 70.38 363.53 65.81 357.69
  C 59.84 350.07 60.09 335.29 61.04 326.11
  Q 63.02 307.06 68.45 288.68
  Z"
/>
<path fill="#32404e" d="
  M 329.58 419.00
  L 329.59 480.21
  A 0.39 0.39 0.0 0 1 329.20 480.60
  L 310.95 480.61
  A 0.39 0.39 0.0 0 1 310.56 480.22
  L 310.56 418.89
  A 0.39 0.39 0.0 0 0 310.17 418.50
  L 286.71 418.56
  A 0.39 0.39 0.0 0 1 286.32 418.17
  L 286.32 400.76
  A 0.39 0.39 0.0 0 1 286.71 400.37
  L 353.92 400.37
  A 0.39 0.39 0.0 0 1 354.31 400.76
  L 354.30 418.21
  A 0.39 0.39 0.0 0 1 353.91 418.60
  L 329.97 418.61
  A 0.39 0.39 0.0 0 0 329.58 419.00
  Z"
/>
<path fill="#32404e" d="
  M 59.86 436.62
  A 0.13 0.13 0.0 0 0 60.09 436.62
  L 81.53 400.98
  Q 81.79 400.55 82.30 400.55
  L 99.52 400.55
  A 0.54 0.54 0.0 0 1 100.06 401.09
  L 100.06 479.99
  A 0.78 0.77 -90.0 0 1 99.29 480.77
  L 81.97 480.75
  A 0.78 0.78 0.0 0 1 81.20 479.97
  L 81.24 433.76
  Q 81.24 433.30 80.95 433.66
  Q 79.82 435.06 78.82 436.81
  Q 71.99 448.72 65.17 460.55
  A 0.71 0.69 -73.9 0 1 64.55 460.90
  L 55.17 460.86
  A 0.80 0.80 0.0 0 1 54.47 460.45
  L 39.17 434.05
  A 0.38 0.38 0.0 0 0 38.46 434.24
  L 38.50 480.50
  A 0.25 0.25 0.0 0 1 38.25 480.75
  L 20.00 480.75
  A 0.84 0.84 0.0 0 1 19.18 479.74
  Q 19.54 478.01 19.53 476.00
  Q 19.48 438.42 19.37 401.21
  A 0.65 0.64 -90.0 0 1 20.01 400.56
  L 37.49 400.54
  Q 37.96 400.54 38.20 400.94
  L 59.86 436.62
  Z"
/>
<path fill="#32404e" d="
  M 206.00 452.65
  L 205.98 480.38
  Q 205.98 480.72 205.63 480.72
  L 187.04 480.77
  Q 186.56 480.77 186.56 480.29
  L 186.56 400.78
  A 0.24 0.23 0.0 0 1 186.80 400.55
  L 243.76 400.55
  Q 244.22 400.55 244.22 401.01
  L 244.22 418.04
  Q 244.22 418.55 243.71 418.54
  L 206.74 418.51
  A 0.75 0.75 0.0 0 0 205.99 419.26
  L 205.96 433.53
  Q 205.96 434.34 206.78 434.34
  L 235.03 434.32
  Q 235.56 434.32 235.55 434.85
  Q 235.50 442.72 235.54 450.54
  Q 235.55 451.46 235.12 451.87
  Q 234.47 452.49 233.56 451.75
  A 0.60 0.60 0.0 0 0 232.73 451.83
  Q 232.41 452.20 232.12 451.88
  Q 221.94 451.96 211.75 451.92
  Q 210.38 451.91 209.01 451.97
  Q 208.93 451.97 207.52 451.76
  Q 207.00 451.69 206.48 451.91
  Q 206.00 452.13 206.00 452.65
  Z"
/>
<rect fill="#32404e" x="256.78" y="400.55" width="19.66" height="80.20" rx="0.33"/>
<path fill="#32404e" d="
  M 139.35 416.11
  Q 139.58 415.82 140.25 415.76
  C 154.63 414.49 167.78 421.34 174.26 434.34
  Q 174.48 434.78 174.00 434.91
  L 156.57 439.41
  Q 156.17 439.51 155.88 439.20
  Q 151.06 433.80 144.58 433.72
  C 129.25 433.55 123.14 453.93 136.27 462.19
  C 143.20 466.55 152.51 464.57 156.93 457.66
  Q 157.16 457.30 157.57 457.41
  L 174.65 461.62
  A 0.69 0.69 0.0 0 1 175.05 462.67
  C 173.53 464.91 172.25 467.57 170.67 469.52
  Q 158.25 484.94 137.71 482.22
  Q 137.49 482.19 137.32 482.07
  Q 137.20 481.99 137.08 481.90
  Q 136.98 481.82 136.85 481.80
  C 124.30 479.34 114.38 468.79 111.44 456.76
  Q 109.20 447.61 112.77 438.11
  Q 119.28 420.81 137.29 416.43
  Q 138.29 416.18 139.35 416.11
  Z"
/>
</svg>
