<?xml version="1.0" encoding="UTF-8"?>
<!DOCTYPE svg PUBLIC "-//W3C//DTD SVG 1.1//EN" "http://www.w3.org/Graphics/SVG/1.1/DTD/svg11.dtd">
<svg xmlns="http://www.w3.org/2000/svg" version="1.1" width="100px" height="100px" style="shape-rendering:geometricPrecision; text-rendering:geometricPrecision; image-rendering:optimizeQuality; fill-rule:evenodd; clip-rule:evenodd" xmlns:xlink="http://www.w3.org/1999/xlink">
<g><path style="opacity:0.861" fill="#fefffe" d="M 37.5,3.5 C 39.6547,3.37201 41.6547,3.87201 43.5,5C 45.5735,7.44967 48.0735,9.283 51,10.5C 55.0527,8.53821 59.2194,6.87154 63.5,5.5C 68.3004,8.40552 72.9671,11.5722 77.5,15C 80.146,15.4974 82.8127,15.6641 85.5,15.5C 81.6685,38.4968 77.5018,61.4968 73,84.5C 72.214,87.5827 70.3807,89.7494 67.5,91C 55.5,91.6667 43.5,91.6667 31.5,91C 28.6193,89.7494 26.786,87.5827 26,84.5C 21.4982,61.4968 17.3315,38.4968 13.5,15.5C 16.8499,15.665 20.1832,15.4983 23.5,15C 28.421,11.3869 33.0877,7.55357 37.5,3.5 Z M 38.5,9.5 C 41.8607,10.684 44.8607,12.5173 47.5,15C 42.5,15.6667 37.5,15.6667 32.5,15C 34.3962,12.932 36.3962,11.0987 38.5,9.5 Z M 61.5,10.5 C 64.7143,11.4404 67.7143,12.9404 70.5,15C 65.5,15.6667 60.5,15.6667 55.5,15C 55.1667,14.6667 54.8333,14.3333 54.5,14C 56.9252,12.7874 59.2585,11.6207 61.5,10.5 Z M 17.5,19.5 C 38.8333,19.5 60.1667,19.5 81.5,19.5C 81.5,20.8333 81.5,22.1667 81.5,23.5C 60.2505,23.2148 38.9172,23.2148 17.5,23.5C 17.5,22.1667 17.5,20.8333 17.5,19.5 Z M 25.5,28.5 C 26.6009,27.4017 27.9343,27.235 29.5,28C 28.3181,29.7683 26.9848,29.9349 25.5,28.5 Z M 36.5,27.5 C 40.5108,27.8222 43.5108,29.8222 45.5,33.5C 43.5,36.1667 41.1667,38.5 38.5,40.5C 35.8333,38.5 33.5,36.1667 31.5,33.5C 33.1897,31.4807 34.8564,29.4807 36.5,27.5 Z M 47.5,28.5 C 48.6009,27.4017 49.9343,27.235 51.5,28C 50.3181,29.7683 48.9848,29.9349 47.5,28.5 Z M 58.5,27.5 C 62.5108,27.8222 65.5108,29.8222 67.5,33.5C 65.5,36.1667 63.1667,38.5 60.5,40.5C 57.8333,38.5 55.5,36.1667 53.5,33.5C 55.1897,31.4807 56.8564,29.4807 58.5,27.5 Z M 69.5,28.5 C 70.6009,27.4017 71.9343,27.235 73.5,28C 72.3181,29.7683 70.9848,29.9349 69.5,28.5 Z M 21.5,31.5 C 23.8519,32.5426 24.0185,33.8759 22,35.5C 21.51,34.2068 21.3433,32.8734 21.5,31.5 Z M 76.5,31.5 C 77.5983,32.6009 77.765,33.9343 77,35.5C 75.2317,34.3181 75.0651,32.9848 76.5,31.5 Z M 26.5,37.5 C 29.7441,39.0713 32.4108,41.4046 34.5,44.5C 32.5,47.1667 30.1667,49.5 27.5,51.5C 22.7619,47.0935 22.4286,42.4268 26.5,37.5 Z M 48.5,37.5 C 51.7441,39.0713 54.4108,41.4046 56.5,44.5C 54.5,47.1667 52.1667,49.5 49.5,51.5C 46.8333,49.5 44.5,47.1667 42.5,44.5C 44.5227,42.1472 46.5227,39.8138 48.5,37.5 Z M 70.5,37.5 C 73.6096,38.2778 75.2763,40.2778 75.5,43.5C 75.4859,46.9037 74.1525,49.5704 71.5,51.5C 68.8333,49.5 66.5,47.1667 64.5,44.5C 66.5227,42.1472 68.5227,39.8138 70.5,37.5 Z M 37.5,48.5 C 40.7441,50.0713 43.4108,52.4046 45.5,55.5C 43.5,58.1667 41.1667,60.5 38.5,62.5C 35.8333,60.5 33.5,58.1667 31.5,55.5C 33.5227,53.1472 35.5227,50.8138 37.5,48.5 Z M 59.5,48.5 C 62.7441,50.0713 65.4108,52.4046 67.5,55.5C 65.5,58.1667 63.1667,60.5 60.5,62.5C 57.8333,60.5 55.5,58.1667 53.5,55.5C 55.5227,53.1472 57.5227,50.8138 59.5,48.5 Z M 26.5,59.5 C 29.7441,61.0713 32.4108,63.4046 34.5,66.5C 32.8509,68.6499 31.0176,70.6499 29,72.5C 28.0997,68.1658 27.2664,63.8324 26.5,59.5 Z M 48.5,59.5 C 51.7441,61.0713 54.4108,63.4046 56.5,66.5C 54.5,69.1667 52.1667,71.5 49.5,73.5C 46.8333,71.5 44.5,69.1667 42.5,66.5C 44.5227,64.1472 46.5227,61.8138 48.5,59.5 Z M 70.5,59.5 C 71.4972,59.4701 72.1639,59.9701 72.5,61C 71.5394,64.8026 70.7061,68.636 70,72.5C 67.9824,70.6499 66.1491,68.6499 64.5,66.5C 66.5227,64.1472 68.5227,61.8138 70.5,59.5 Z M 37.5,70.5 C 40.7441,72.0713 43.4108,74.4046 45.5,77.5C 43.8333,79.8333 41.8333,81.8333 39.5,83.5C 36.8333,81.5 34.5,79.1667 32.5,76.5C 34.1897,74.4807 35.8564,72.4807 37.5,70.5 Z M 59.5,70.5 C 62.4073,71.7341 64.7407,73.7341 66.5,76.5C 64.5,79.1667 62.1667,81.5 59.5,83.5C 57.1667,81.8333 55.1667,79.8333 53.5,77.5C 55.5227,75.1472 57.5227,72.8138 59.5,70.5 Z M 48.5,81.5 C 51.2254,82.713 53.5588,84.5464 55.5,87C 51.5,87.6667 47.5,87.6667 43.5,87C 45.3734,85.2962 47.0401,83.4628 48.5,81.5 Z"/></g>
</svg>
