<?xml version="1.0" standalone="no"?>
<!DOCTYPE svg PUBLIC "-//W3C//DTD SVG 20010904//EN"
 "http://www.w3.org/TR/2001/REC-SVG-20010904/DTD/svg10.dtd">
<svg version="1.0" xmlns="http://www.w3.org/2000/svg"
 width="512.000000pt" height="512.000000pt" viewBox="0 0 512.000000 512.000000"
 preserveAspectRatio="xMidYMid meet">

<g transform="translate(0.000000,512.000000) scale(0.100000,-0.100000)"
fill="#cacaca" stroke="none">
<path d="M3251 5109 c-174 -53 -263 -249 -187 -415 24 -53 107 -139 799 -831
550 -549 785 -778 817 -794 61 -30 170 -37 238 -15 67 23 135 84 169 153 22
47 27 71 27 128 0 119 -14 139 -277 402 l-231 233 176 177 c259 261 262 231
-66 561 -335 337 -307 333 -569 74 l-177 -177 -233 232 c-254 254 -280 273
-391 279 -34 2 -76 -1 -95 -7z"/>
<path d="M2439 4689 c-96 -14 -174 -71 -218 -161 -26 -51 -31 -73 -31 -132 0
-138 -60 -70 1038 -1168 686 -685 1001 -993 1032 -1009 37 -20 60 -24 135 -24
103 0 143 16 208 82 58 57 80 106 85 193 9 146 82 62 -1026 1172 -695 696
-1000 994 -1034 1013 -57 31 -125 43 -189 34z"/>
<path d="M2240 2875 l-455 -455 318 -317 317 -318 457 457 458 458 -315 315
c-173 173 -317 315 -320 315 -3 0 -210 -205 -460 -455z"/>
<path d="M640 2921 c-47 -15 -85 -39 -123 -78 -58 -57 -80 -106 -85 -193 -9
-146 -82 -62 1027 -1173 1099 -1101 1040 -1048 1175 -1048 118 0 213 58 265
163 26 51 31 73 31 132 0 138 60 70 -1038 1168 -708 707 -1000 992 -1032 1009
-49 24 -173 36 -220 20z"/>
<path d="M193 2064 c-60 -22 -128 -86 -160 -151 -22 -47 -27 -71 -27 -128 0
-119 14 -139 277 -402 l231 -233 -176 -177 c-258 -261 -262 -231 66 -561 334
-337 307 -333 569 -74 l177 176 238 -236 c266 -265 279 -273 407 -273 54 0 81
6 118 25 150 76 211 246 143 396 -24 53 -107 139 -799 831 -547 546 -785 778
-817 794 -58 29 -185 36 -247 13z"/>
</g>
</svg>
